<svg xmlns="http://www.w3.org/2000/svg" viewBox="0 0 139.46 152.01"><defs><style>.cls-1{fill:#ed1c24;}.cls-2{fill:#fff;}</style></defs><title>e-final</title><g id="Layer_2" data-name="Layer 2"><g id="Layer_3" data-name="Layer 3"><path class="cls-1" d="M6,127.73a5,5,0,0,1-3.7-.67,5.48,5.48,0,0,1-.75-.6,5.59,5.59,0,0,1-.63-.74,5.16,5.16,0,0,1-.46-.83,5,5,0,0,1-.3-.93A4.33,4.33,0,0,1,0,123a4.45,4.45,0,0,1,.08-1,4.87,4.87,0,0,1,.7-1.78,4.36,4.36,0,0,1,.6-.76,5.43,5.43,0,0,1,.73-.62,5.31,5.31,0,0,1,.84-.47,4.65,4.65,0,0,1,1.87-.4,4.4,4.4,0,0,1,1,.08,4.62,4.62,0,0,1,.92.25,5.07,5.07,0,0,1,.87.44,4.81,4.81,0,0,1,.75.6,5.33,5.33,0,0,1,.62.73,5,5,0,0,1,.47.84,5.2,5.2,0,0,1,.3.92,5.13,5.13,0,0,1,.11,1,5,5,0,0,1-.08,1,5.82,5.82,0,0,1-.26.93,5.36,5.36,0,0,1-.44.86A5,5,0,0,1,6,127.73Z"/><path class="cls-1" d="M41.37,149.15a4.93,4.93,0,0,1,2.41-6.52h0A4.91,4.91,0,0,1,50.29,145h0a4.9,4.9,0,0,1-2.4,6.51h0a5.14,5.14,0,0,1-1,.35h0A4.93,4.93,0,0,1,41.37,149.15Zm16.16-8.47a4.9,4.9,0,0,1,.76-6.9h0a4.9,4.9,0,0,1,6.9.76h0a4.92,4.92,0,0,1-.76,6.91h0a4.83,4.83,0,0,1-2,1h0A4.88,4.88,0,0,1,57.53,140.68ZM26.38,143.1h0a4.91,4.91,0,0,1,.43-6.93h0a4.91,4.91,0,0,1,6.93.43h0a4.9,4.9,0,0,1-.43,6.93h0a4.82,4.82,0,0,1-2.2,1.12h0A4.9,4.9,0,0,1,26.38,143.1ZM70.5,128a4.92,4.92,0,0,1-2.13-6.61h0A4.92,4.92,0,0,1,75,119.24h0a4.91,4.91,0,0,1,2.13,6.61h0a4.86,4.86,0,0,1-3.33,2.57h0A5,5,0,0,1,70.5,128ZM17,125.33h0a4.92,4.92,0,0,1,3.21-6.16h0a4.93,4.93,0,0,1,6.17,3.22h0a4.92,4.92,0,0,1-3.22,6.15h0a3.6,3.6,0,0,1-.44.12h0A4.92,4.92,0,0,1,17,125.33Zm61.43-13.76a4.9,4.9,0,0,1-2.64-6.42h0a4.9,4.9,0,0,1,6.42-2.64h0a4.9,4.9,0,0,1,2.64,6.42h0a4.91,4.91,0,0,1-3.49,2.91h0A4.87,4.87,0,0,1,78.39,111.57Zm-51.33-11a4.92,4.92,0,0,1,0-7h0a4.91,4.91,0,0,1,6.94,0h0a4.9,4.9,0,0,1,0,6.95h0a4.94,4.94,0,0,1-2.45,1.35h0A4.93,4.93,0,0,1,27.06,100.54Zm12.79-13a4.91,4.91,0,0,1-.07-7h0a4.91,4.91,0,0,1,6.95-.07h0a4.91,4.91,0,0,1,.07,6.95h0a5,5,0,0,1-2.46,1.36h0A5,5,0,0,1,39.85,87.56Zm-20.71,5a4.9,4.9,0,0,1-4.85-5h0a4.91,4.91,0,0,1,5-4.84h0a4.91,4.91,0,0,1,4.84,5h0a4.91,4.91,0,0,1-3.86,4.73h0A5.16,5.16,0,0,1,19.14,92.57ZM52.89,74.79A4.9,4.9,0,0,1,51.58,68h0a4.91,4.91,0,0,1,6.82-1.3h0a4.92,4.92,0,0,1,1.31,6.82h0a4.91,4.91,0,0,1-3,2h0A4.9,4.9,0,0,1,52.89,74.79Zm-33.35-.46A4.91,4.91,0,0,1,15.2,68.9h0a4.89,4.89,0,0,1,5.42-4.33h0A4.9,4.9,0,0,1,25,70h0a4.93,4.93,0,0,1-3.84,4.26h0A5.52,5.52,0,0,1,19.54,74.33ZM53.92,55.84a4.92,4.92,0,0,1,2.15-6.61h0a4.91,4.91,0,0,1,6.6,2.15h0A4.92,4.92,0,0,1,60.53,58h0a5,5,0,0,1-1.19.42h0A4.9,4.9,0,0,1,53.92,55.84ZM24.66,57.05a4.9,4.9,0,0,1-.25-6.93h0a4.92,4.92,0,0,1,7-.25h0a4.91,4.91,0,0,1,.24,6.94h0a5,5,0,0,1-2.55,1.45h0A4.91,4.91,0,0,1,24.66,57.05Zm19.16-7.44A4.91,4.91,0,0,1,38.6,45h0a4.92,4.92,0,0,1,4.59-5.21h0a4.92,4.92,0,0,1,5.22,4.59h0a4.93,4.93,0,0,1-3.86,5.11h0A6.09,6.09,0,0,1,43.82,49.61Z"/><path class="cls-1" d="M87.94,95.09a4.42,4.42,0,0,1-1,.11,5.18,5.18,0,0,1-1-.08,4.36,4.36,0,0,1-.92-.26,5.36,5.36,0,0,1-.86-.44,4.36,4.36,0,0,1-.76-.6,5.43,5.43,0,0,1-.62-.73,5.31,5.31,0,0,1-.47-.84,5.5,5.5,0,0,1-.3-.92,6,6,0,0,1-.11-1,5,5,0,0,1,.09-1,4.62,4.62,0,0,1,.25-.92,4.48,4.48,0,0,1,.45-.87,5,5,0,0,1,4-2.25,5,5,0,0,1,1,.08,6.24,6.24,0,0,1,.94.26,4.9,4.9,0,0,1,.85.44,4.77,4.77,0,0,1,.76.6,6.28,6.28,0,0,1,.62.73,5.68,5.68,0,0,1,.47.84,5.79,5.79,0,0,1,.29.92,5,5,0,0,1,.12,1,5.12,5.12,0,0,1-.09,1,4.91,4.91,0,0,1-.25.93A6.32,6.32,0,0,1,91,93,5,5,0,0,1,87.94,95.09Z"/><path class="cls-2" d="M118.17,1.67c-16-5.32-33,2.5-38,17.44a27.09,27.09,0,0,0-.44,15.68L91.18,77.11a2.6,2.6,0,0,0,1.69,1.75h0a2.57,2.57,0,0,0,2.42-.41l34.06-27.52a27.23,27.23,0,0,0,8.71-12.52C143.06,23.48,134.13,7,118.17,1.67ZM126,47.23l-31,25L84.66,33.78A22.58,22.58,0,0,1,85,20.7c4.15-12.44,18.39-19,31.69-14.54s20.74,18.2,16.59,30.65A22.66,22.66,0,0,1,126,47.23Z"/><path class="cls-2" d="M113.65,15.21c-8-2.66-16.49,1.25-19,8.72s1.86,15.68,10,18.37,16.54-1.38,19-8.71S121.63,17.88,113.65,15.21Zm-7.54,22.61c-5.34-1.79-8.32-7.3-6.65-12.29s7.38-7.6,12.7-5.83S120.46,27,118.8,32,111.55,39.63,106.11,37.82Z"/><path class="cls-1" d="M19.2,113.54a5,5,0,0,1-3.7-.67,5.48,5.48,0,0,1-.75-.6,5.59,5.59,0,0,1-.63-.74,5,5,0,0,1-.76-1.75,4.9,4.9,0,0,1,0-1.92,4.93,4.93,0,0,1,1.3-2.54,5.43,5.43,0,0,1,.73-.62,5.31,5.31,0,0,1,.84-.47,4.65,4.65,0,0,1,1.87-.4,4.4,4.4,0,0,1,1,.08,4.62,4.62,0,0,1,.92.25,4.48,4.48,0,0,1,.87.45,4.75,4.75,0,0,1,.75.59,5.33,5.33,0,0,1,.62.73,5,5,0,0,1,.47.84,4.82,4.82,0,0,1,.41,1.88,5,5,0,0,1-.08.95,6.24,6.24,0,0,1-.26.94,5.71,5.71,0,0,1-.44.85A5,5,0,0,1,19.2,113.54Z"/></g></g></svg>