<?xml version="1.0" encoding="utf-8"?>
<!-- Generator: Adobe Illustrator 22.0.0, SVG Export Plug-In . SVG Version: 6.00 Build 0)  -->
<svg version="1.1" id="Layer_1" xmlns="http://www.w3.org/2000/svg" xmlns:xlink="http://www.w3.org/1999/xlink" x="0px" y="0px"
	 viewBox="0 0 346.4 162.8" style="enable-background:new 0 0 346.4 162.8;" xml:space="preserve">
<style type="text/css">
	.st0{enable-background:new    ;}
	.st1{fill:#FFFFFF;}
	.st2{fill:#ED1C24;}
</style>
<title>eureka-final</title>
<g id="Layer_2_1_">
	<g id="Layer_3">
		<g class="st0">
			<path class="st1" d="M118.8,113.6c-0.3,1-1.2,2.4-2.5,4.1c-1.3,1.7-2.8,3.4-4.6,5.2c-1.8,1.7-3.6,3.2-5.5,4.5s-3.5,1.9-5,1.9
				c-2.7,0-4.9-1.3-6.6-3.8c-1.7-2.5-3-5.7-4-9.7c-0.9-3.9-1.6-8.3-1.9-13.1c-0.3-4.8-0.5-9.5-0.6-14.1c-0.1-4.6-0.1-8.8-0.1-12.6
				c0-3.8-0.1-6.6-0.4-8.6c0.3-0.8,0.8-1.3,1.3-1.5c0.5-0.2,1.2-0.3,1.9-0.3c0.7,0,1.3,0.1,1.8,0.3c0.5,0.2,1,0.7,1.4,1.5
				c0,0.9,0,2.5,0.1,4.7c0,2.2,0.1,4.6,0.3,7.4c0.2,2.7,0.3,5.6,0.5,8.6c0.2,3,0.3,5.8,0.4,8.5c0.1,2.7,0.3,5.1,0.4,7.2
				c0.1,2.1,0.2,3.7,0.3,4.7c0.1,0.6,0.2,1.6,0.3,2.9c0.1,1.3,0.3,2.7,0.6,4.2c0.3,1.5,0.7,2.8,1.1,4c0.5,1.2,1.1,1.8,1.8,1.9
				c1.3,0,2.5-0.5,3.8-1.6c1.3-1.1,2.6-2.5,3.8-4.1c1.3-1.7,2.4-3.5,3.5-5.5c1.1-2,2.1-4,3-5.8c0.9-1.9,1.6-3.6,2-5.1
				c0.5-1.5,0.7-2.6,0.8-3.3c0.2-1.4,0.3-3.5,0.5-6.1c0.2-2.6,0.3-5.5,0.4-8.5c0.1-3,0.1-5.9,0.2-8.6c0-2.7,0.1-4.7,0.1-6.2l6.9,0.4
				c0.1,6.8,0,12.9-0.1,18.4c-0.2,5.5-0.2,10.6-0.1,15.5c0.1,4.8,0.5,9.5,1.1,14c0.7,4.5,1.9,9.2,3.6,14.1c-0.3,0.3-0.8,0.6-1.5,1.1
				c-0.8,0.5-1.3,0.7-1.6,0.7c-2.1,0-3.5-0.7-4.2-2.1c-0.7-1.4-1.2-3-1.4-4.9c-0.2-1.9-0.4-3.8-0.5-5.7S119.8,114.7,118.8,113.6z"/>
			<path class="st1" d="M136.8,67.6v-1c0-0.8,0.3-1.4,0.9-1.8c0.6-0.3,1.4-0.5,2.2-0.5c0.7,0,1.3,0.1,1.9,0.2c0.6,0.1,1,0.6,1.4,1.4
				c0.3,1.3,0.5,3,0.8,5.2c0.3,2.2,0.5,4.7,0.9,7.4c0.3,2.7,0.7,5.5,1.1,8.5c0.4,3,0.8,5.8,1.1,8.4c0.4,2.6,0.8,5,1.2,7.1
				c0.4,2.1,0.9,3.7,1.4,4.8c-0.3-8,0-15,0.8-20.9c0.8-5.9,2.2-10.7,4.3-14.5c2.1-3.7,5.1-6.3,8.8-7.8c3.7-1.5,8.4-1.8,14-0.9
				c2.6,0,3.9,1.4,3.9,4.1c0,1.1-0.7,1.8-2.1,2.2c-1.4,0.4-3,0.6-4.8,0.8c-1.8,0.1-3.5,0.3-5.2,0.4c-1.7,0.2-2.9,0.6-3.6,1.3
				c-3,1.7-5.1,4.3-6.4,7.8c-1.2,3.5-2.1,7.7-2.6,12.4s-0.9,10-1.1,15.7c-0.2,5.7-0.8,11.5-1.7,17.4c0,0.8-0.3,1.5-1,1.9
				c-0.7,0.4-1.5,0.6-2.5,0.6c-1,0-1.9-0.2-2.8-0.6c-0.9-0.4-1.6-1-2.1-1.9L136.8,67.6z"/>
			<path class="st1" d="M191.5,101c-0.4,0.1-1,0.2-1.9,0.4c-0.8,0.2-1.7,0.2-2.6,0.1c-0.9-0.1-1.7-0.3-2.5-0.8
				c-0.7-0.4-1.1-1.1-1.1-2.1c0-0.6,0.1-1,0.4-1.3c0.3-0.3,0.7-0.6,1.3-1.1c1.8-1.5,3.4-3.5,4.7-5.8c1.3-2.4,2.5-4.9,3.6-7.7
				c1.1-2.7,2.2-5.4,3.5-8.2c1.2-2.7,2.6-5.2,4.2-7.4c1.6-2.2,3.6-3.9,5.9-5.3c2.3-1.3,5.2-2,8.7-1.9c1.4,0,3,0.3,4.8,1
				c1.8,0.7,3.4,1.6,4.9,2.7c1.5,1.1,2.8,2.5,3.8,4.1c1,1.6,1.5,3.4,1.5,5.3c0.4,0.7,0,1.6-1.2,2.9c-1.2,1.3-2.9,2.6-5,4.1
				c-2.1,1.5-4.5,3-7.1,4.5c-2.6,1.6-5.2,3-7.6,4.3c-2.4,1.3-4.6,2.5-6.4,3.5c-1.8,1-3.1,1.8-3.6,2.3c-0.4,0.8-0.8,1.8-1,2.9
				c-0.3,1.1-0.4,2.1-0.6,3.1c-0.1,1-0.2,1.8-0.3,2.6c0,0.8-0.1,1.4-0.1,1.8c0,1.6-0.1,3.4-0.2,5.3c-0.1,1.9,0,3.8,0.3,5.5
				c0.3,1.7,1,3.1,2.1,4.3c1.1,1.1,2.9,1.7,5.5,1.7c2.8,0,5.4-0.7,7.8-2.1c2.4-1.4,4.7-3.1,6.8-5.1c2.1-2,4-4.2,5.7-6.5
				c1.7-2.3,3.3-4.5,4.7-6.6c1.4-2.1,2.6-3.8,3.7-5.1c1.1-1.3,2-2,2.8-2c0.8,0,1.7,0.1,2.7,0.4c1,0.3,1.4,1,1.4,2.1
				c0,1.5-0.6,3.3-1.8,5.4c-1.2,2.1-2.8,4.3-4.8,6.7c-2,2.3-4.2,4.7-6.8,7c-2.6,2.3-5.1,4.4-7.7,6.2c-2.6,1.8-5.2,3.3-7.7,4.4
				c-2.5,1.1-4.7,1.7-6.7,1.7c-3.8,0-6.6-0.9-8.6-2.8c-1.9-1.8-3.3-4.2-4.1-6.9c-0.8-2.8-1.2-5.7-1.3-8.9
				C191.7,106.6,191.6,103.7,191.5,101z M214.7,67.1c-1.4,0-2.9,0.7-4.5,2.1c-1.6,1.4-3.1,3.1-4.5,5c-1.4,2-2.5,4-3.4,6
				c-0.9,2.1-1.3,3.8-1.3,5.1c1.3,0,3.1-0.5,5.5-1.4c2.4-1,4.8-2.2,7.1-3.6c2.3-1.4,4.4-2.9,6.2-4.5c1.8-1.6,2.6-3.1,2.6-4.5
				c0-0.8-0.3-1.4-0.9-1.9c-0.6-0.5-1.3-0.9-2.1-1.3c-0.8-0.3-1.6-0.6-2.5-0.8C216.1,67.2,215.3,67.1,214.7,67.1z"/>
			<path class="st1" d="M251,31.6c1.8-1.7,3.2-2.3,4.2-2c1,0.3,1.8,1.5,2.3,3.4c0.5,1.9,0.8,4.4,0.9,7.5c0.1,3.1,0.1,6.6-0.1,10.5
				c-0.1,3.9-0.4,8-0.7,12.3c-0.3,4.3-0.6,8.6-0.9,12.7c-0.3,4.1-0.4,8.1-0.5,11.9c-0.1,3.8,0,7,0.4,9.8h0.4c0.2,0,0.3,0,0.4-0.1
				c4.4-4.4,8.3-9,11.7-13.8c3.4-4.9,6.5-9.5,9.3-13.8c2.8-4.3,5.2-8.1,7.4-11.3c2.1-3.2,4.1-5.4,6-6.5c1.3,0,2.3,0.2,3.2,0.6
				c0.9,0.4,1.3,1.4,1.3,2.9c0,0.2,0,0.4-0.1,0.8c0,0.4-0.1,0.7-0.1,0.8c-2.1,4.3-4.4,8.6-6.9,12.9c-2.5,4.3-5.2,8.5-8.2,12.5
				c-2.9,4-6.1,7.8-9.5,11.4c-3.4,3.6-7.1,6.9-11,9.8c0,0.1,0,0.2-0.1,0.4c0,0.2-0.1,0.4-0.1,0.4c0,0.8,0.7,1.8,2.1,2.8
				c1.4,1,3.1,2,5.3,2.9c2.1,0.9,4.5,1.8,7.2,2.8c2.6,0.9,5.2,1.7,7.8,2.4c2.6,0.7,4.9,1.2,7.2,1.6c2.2,0.4,4,0.6,5.2,0.6
				c0,0.3,0,1,0.1,1.9c0,0.9,0,1.9-0.2,2.9c-0.2,1-0.5,1.9-0.9,2.7c-0.4,0.8-1.1,1.2-2,1.2h-0.5c-0.2,0-0.3,0-0.4-0.1l-36-14.5
				c-0.1,4.9-0.4,9-1,12c-0.6,3.1-1.3,5.3-2.1,6.8c-0.8,1.5-1.6,2.2-2.5,2.1c-0.9-0.1-1.7-0.8-2.3-2L251,31.6z"/>
			<path class="st1" d="M338.3,124.9c-0.4-2.2-0.8-4.8-1.1-7.9c-0.3-3.1-0.6-6.2-0.9-9.3c-0.3-3.1-0.7-6.1-1.2-8.9
				c-0.5-2.8-1.2-5-2.1-6.8c-4.3,8.7-8,15.6-11.3,20.6c-3.3,5-6.1,8.6-8.6,10.7c-2.5,2.1-4.5,3.2-6.2,3.1c-1.7-0.1-3.1-0.8-4.1-2.3
				c-1.1-1.4-1.9-3.2-2.3-5.5c-0.5-2.2-0.8-4.3-0.9-6.2c0-1.8,0.4-4.4,1.3-7.8c0.8-3.4,2-7,3.4-11c1.4-4,3.1-8,5.1-12.1
				c2-4.1,4.1-7.8,6.4-11.2c2.3-3.4,4.6-6.1,7-8.3c2.4-2.2,4.9-3.3,7.3-3.3c3.6-0.6,6.3,0.2,8,2.3c1.7,2.1,2,5.7,0.9,10.8
				c0,5.5,0.2,10.3,0.7,14.2c0.5,3.9,1,7.7,1.5,11.3c0.5,3.6,1,7.4,1.5,11.3c0.5,3.9,0.7,8.7,0.7,14.2c0,1-0.1,1.9-0.3,2.6
				c-0.2,0.7-1.2,1.1-3.1,1.1c-0.3,0-0.6-0.2-0.9-0.6C338.5,125.5,338.3,125.2,338.3,124.9z M331.5,68.7c-0.9-1.3-2.2-1.5-3.8-0.4
				c-1.6,1.1-3.3,2.9-5,5.4c-1.8,2.5-3.6,5.5-5.4,9.1c-1.8,3.5-3.6,7.1-5.2,10.7c-1.6,3.6-3,7-4.2,10.2c-1.2,3.2-2,5.9-2.4,8
				c0,3,0.5,4.7,1.4,5.1c0.9,0.4,2.1-0.1,3.4-1.4c1.3-1.3,2.9-3.3,4.6-5.8c1.7-2.5,3.4-5.2,5-8c1.6-2.8,3.2-5.6,4.7-8.3
				c1.5-2.7,2.6-4.9,3.5-6.5c0.8-1.8,1.3-3.4,1.8-4.9c0.4-1.5,0.8-3,1.1-4.3c0.3-1.4,0.5-2.8,0.5-4.2
				C331.5,71.8,331.5,70.3,331.5,68.7z"/>
		</g>
		<path class="st2" d="M4.3,113.2c-0.9,0.2-1.9,0-2.7-0.5c-0.2-0.1-0.4-0.3-0.5-0.4c-0.2-0.2-0.3-0.3-0.4-0.5s-0.3-0.4-0.3-0.6
			c-0.4-0.9-0.4-1.9,0-2.8c0.1-0.2,0.2-0.4,0.3-0.6s0.2-0.4,0.4-0.5c0.2-0.2,0.3-0.3,0.5-0.4s0.4-0.3,0.6-0.3
			c0.4-0.2,0.9-0.3,1.4-0.3c0.2,0,0.5,0,0.7,0.1c0.2,0,0.5,0.1,0.7,0.2s0.4,0.2,0.6,0.3c0.2,0.1,0.4,0.3,0.6,0.4
			c0.2,0.2,0.3,0.3,0.4,0.5s0.3,0.4,0.3,0.6c0.1,0.2,0.2,0.4,0.2,0.7c0.1,0.2,0.1,0.5,0.1,0.7s0,0.5-0.1,0.7c0,0.2-0.1,0.5-0.2,0.7
			s-0.2,0.4-0.3,0.6C6,112.4,5.2,112.9,4.3,113.2z"/>
		<path class="st2" d="M30.1,128.8c-0.8-1.8-0.1-3.9,1.7-4.8l0,0l0,0c1.8-0.8,3.9,0,4.8,1.8l0,0c0.8,1.8,0,3.9-1.8,4.8l0,0
			c-0.2,0.1-0.5,0.2-0.8,0.2l0,0C32.5,131.1,30.8,130.3,30.1,128.8z M42,122.6c-1.2-1.5-1-3.8,0.6-5l0,0c1.5-1.2,3.8-1,5,0.6l0,0
			c1.2,1.5,1,3.8-0.6,5l0,0c-0.4,0.3-0.9,0.6-1.5,0.7l0,0C44.2,124.1,42.8,123.6,42,122.6z M19.3,124.4L19.3,124.4
			c-1.3-1.5-1.1-3.7,0.3-5l0,0c1.5-1.3,3.7-1.2,5.1,0.3l0,0c1.3,1.5,1.2,3.7-0.3,5.1l0,0l0,0c-0.5,0.4-1,0.7-1.6,0.8l0,0
			C21.4,125.8,20.1,125.4,19.3,124.4L19.3,124.4z M51.4,113.4c-1.8-0.9-2.5-3.1-1.6-4.8l0,0l0,0c0.9-1.7,3-2.4,4.8-1.5l0,0
			c1.8,0.9,2.5,3.1,1.6,4.8l0,0l0,0c-0.5,1-1.4,1.6-2.4,1.9l0,0C53,113.9,52.1,113.7,51.4,113.4L51.4,113.4z M12.3,111.4L12.3,111.4
			c-0.6-1.9,0.5-3.9,2.3-4.5l0,0l0,0c1.9-0.6,3.9,0.5,4.5,2.3l0,0c0.6,1.9-0.5,3.9-2.4,4.5l0,0l-0.3,0.1l0,0
			C14.7,114.2,12.9,113.2,12.3,111.4z M57.1,101.4c-1.8-0.8-2.7-2.9-1.9-4.7l0,0l0,0c0.8-1.8,2.8-2.7,4.7-1.9l0,0l0,0
			c1.8,0.8,2.7,2.8,1.9,4.7l0,0l0,0c-0.4,1.1-1.4,1.9-2.5,2.1l0,0C58.6,101.7,57.8,101.7,57.1,101.4L57.1,101.4z M19.7,93.3
			c-1.4-1.4-1.4-3.7,0-5.1l0,0c1.4-1.4,3.7-1.4,5.1,0l0,0c1.4,1.4,1.4,3.7,0,5.1l0,0c-0.5,0.5-1.1,0.8-1.8,1l0,0
			C21.8,94.6,20.6,94.2,19.7,93.3z M29,83.9c-1.4-1.4-1.4-3.7,0-5.1l0,0c1.4-1.4,3.7-1.4,5.1,0l0,0l0,0c1.4,1.4,1.4,3.6,0,5.1l0,0
			c-0.5,0.5-1.1,0.8-1.8,1l0,0C31.1,85.1,29.9,84.7,29,83.9z M14,87.5c-2,0-3.6-1.6-3.5-3.6l0,0l0,0c0-2,1.7-3.6,3.6-3.5l0,0l0,0
			c2,0,3.5,1.7,3.5,3.7l0,0c0,1.7-1.2,3.1-2.8,3.4l0,0C14.5,87.5,14.2,87.5,14,87.5z M38.6,74.5c-1.7-1.1-2.1-3.3-1-5l0,0l0,0
			c1.1-1.7,3.3-2.1,5-1l0,0l0,0c1.7,1.1,2.1,3.3,1,5l0,0l0,0c-0.5,0.8-1.3,1.3-2.2,1.5l0,0C40.4,75.3,39.4,75.1,38.6,74.5L38.6,74.5
			z M14.2,74.2c-2-0.2-3.4-2-3.2-3.9v-0.1l0,0c0.2-1.9,2-3.3,3.9-3.1l0,0c2,0.2,3.4,1.9,3.2,3.9l0,0c-0.2,1.5-1.3,2.8-2.8,3.1l0,0
			C15,74.2,14.6,74.2,14.2,74.2z M39.3,60.7c-0.9-1.8-0.2-3.9,1.6-4.8l0,0l0,0c1.8-0.9,3.9-0.2,4.8,1.6l0,0c0.9,1.8,0.2,3.9-1.6,4.8
			l0,0c-0.3,0.1-0.6,0.2-0.9,0.3l0,0C41.7,62.9,40,62.2,39.3,60.7z M18,61.6c-1.4-1.3-1.5-3.6-0.2-5.1l0,0l0,0
			c1.4-1.4,3.6-1.5,5.1-0.2l0,0c1.4,1.3,1.5,3.6,0.2,5l0,0l0,0c-0.5,0.5-1.1,0.9-1.9,1.1l0,0C20,62.7,18.8,62.4,18,61.6z M32,56.2
			c-2,0.1-3.7-1.4-3.8-3.3l0,0l0,0c-0.1-2,1.3-3.7,3.3-3.8l0,0c2-0.1,3.7,1.4,3.8,3.3l0,0c0.1,1.8-1.1,3.3-2.8,3.7l0,0
			C32.3,56.1,32.1,56.2,32,56.2z"/>
		<path class="st2" d="M64.1,89.4c-0.2,0-0.5,0.1-0.7,0.1s-0.5,0-0.7-0.1c-0.2,0-0.5-0.1-0.7-0.2s-0.4-0.2-0.6-0.3
			c-0.2-0.1-0.4-0.3-0.6-0.4c-0.2-0.2-0.3-0.3-0.5-0.5c-0.1-0.2-0.2-0.4-0.3-0.6s-0.2-0.4-0.2-0.7c0-0.2-0.1-0.5-0.1-0.7
			s0-0.5,0.1-0.7c0-0.2,0.1-0.5,0.2-0.7c0.1-0.2,0.2-0.4,0.3-0.6c0.7-1,1.8-1.6,3-1.6c0.2,0,0.5,0,0.7,0c0.2,0,0.5,0.1,0.7,0.2
			s0.4,0.2,0.6,0.3c0.2,0.1,0.4,0.3,0.6,0.4c0.2,0.2,0.3,0.3,0.4,0.5s0.2,0.4,0.3,0.6c0.1,0.2,0.2,0.4,0.2,0.7
			c0.1,0.2,0.1,0.5,0.1,0.7s0,0.5-0.1,0.7c0,0.2-0.1,0.5-0.2,0.7s-0.2,0.4-0.3,0.6C65.9,88.6,65.1,89.1,64.1,89.4z"/>
		<path class="st1" d="M86.1,21.2c-11.6-3.9-24,1.8-27.6,12.7c-1.2,3.7-1.3,7.7-0.3,11.4l8.3,30.9c0.2,0.6,0.6,1.1,1.2,1.3l0,0
			c0.6,0.2,1.3,0.1,1.8-0.3l24.9-20.1c2.9-2.4,5.1-5.5,6.3-9.1C104.3,37.1,97.8,25.1,86.1,21.2z M91.9,54.4L69.3,72.7l-7.6-28
			c-0.9-3.2-0.8-6.5,0.3-9.6c3-9.1,13.4-13.8,23.1-10.6s15.1,13.3,12.1,22.4C96.2,49.8,94.3,52.5,91.9,54.4z"/>
		<path class="st1" d="M82.9,31.1c-5.8-2-12,0.9-13.9,6.4s1.4,11.4,7.3,13.4s12.1-1,13.8-6.4S88.7,33,82.9,31.1z M77.4,47.6
			c-3.8-1.1-6-5.2-4.9-9l0,0c1.5-3.8,5.9-5.7,9.7-4.1c3.5,1.4,5.4,5.2,4.4,8.8C85.2,47,81.1,48.9,77.4,47.6L77.4,47.6z"/>
		<path class="st2" d="M14,102.8c-0.9,0.2-1.9,0-2.7-0.5c-0.2-0.1-0.4-0.3-0.5-0.4c-0.2-0.2-0.3-0.3-0.5-0.5
			c-0.1-0.2-0.2-0.4-0.3-0.6s-0.2-0.4-0.2-0.7c0-0.2-0.1-0.5-0.1-0.7s0-0.5,0.1-0.7c0-0.2,0.1-0.4,0.2-0.7c0.1-0.2,0.2-0.4,0.3-0.6
			s0.3-0.4,0.4-0.6c0.2-0.2,0.3-0.3,0.5-0.4s0.4-0.2,0.6-0.3c0.4-0.2,0.9-0.3,1.4-0.3c0.2,0,0.5,0,0.7,0.1c0.2,0,0.5,0.1,0.7,0.2
			s0.4,0.2,0.6,0.3c0.2,0.1,0.4,0.3,0.6,0.4c0.2,0.2,0.3,0.3,0.4,0.5s0.3,0.4,0.3,0.6c0.2,0.4,0.3,0.9,0.3,1.4c0,0.2,0,0.5,0,0.7
			s-0.1,0.5-0.2,0.7s-0.2,0.4-0.3,0.6C15.7,102,14.9,102.6,14,102.8z"/>
	</g>
</g>
</svg>
