<?xml version="1.0" encoding="utf-8"?>
<!-- Generator: Adobe Illustrator 22.0.0, SVG Export Plug-In . SVG Version: 6.00 Build 0)  -->
<svg version="1.1" id="Layer_1" xmlns="http://www.w3.org/2000/svg" xmlns:xlink="http://www.w3.org/1999/xlink" x="0px" y="0px"
	 viewBox="0 0 346.4 162.8" style="enable-background:new 0 0 346.4 162.8;" xml:space="preserve">
<style type="text/css">
	.st0{fill:#FFFFFF;}
	.st1{font-family:'ShadowsIntoLight';}
	.st2{font-size:128.77px;}
	.st3{fill:#ED1C24;}
</style>
<title>eureka-final</title>
<g id="Layer_2_1_">
	<g id="Layer_3">
		<text transform="matrix(1 0 0 1 83.6197 128.2022)" class="st0 st1 st2">ureka</text>
		<path class="st3" d="M4.3,113.2c-0.9,0.2-1.9,0-2.7-0.5c-0.2-0.1-0.4-0.3-0.5-0.4c-0.2-0.2-0.3-0.3-0.4-0.5
			c-0.1-0.2-0.3-0.4-0.3-0.6c-0.4-0.9-0.4-1.9,0-2.8c0.1-0.2,0.2-0.4,0.3-0.6c0.1-0.2,0.2-0.4,0.4-0.5c0.2-0.2,0.3-0.3,0.5-0.4
			c0.2-0.1,0.4-0.3,0.6-0.3c0.4-0.2,0.9-0.3,1.4-0.3c0.2,0,0.5,0,0.7,0.1c0.2,0,0.5,0.1,0.7,0.2c0.2,0.1,0.4,0.2,0.6,0.3
			c0.2,0.1,0.4,0.3,0.6,0.4c0.2,0.2,0.3,0.3,0.4,0.5c0.1,0.2,0.3,0.4,0.3,0.6c0.1,0.2,0.2,0.4,0.2,0.7c0.1,0.2,0.1,0.5,0.1,0.7
			c0,0.2,0,0.5-0.1,0.7c0,0.2-0.1,0.5-0.2,0.7c-0.1,0.2-0.2,0.4-0.3,0.6C6,112.4,5.2,112.9,4.3,113.2z"/>
		<path class="st3" d="M30.1,128.8c-0.8-1.8-0.1-3.9,1.7-4.8c0,0,0,0,0,0l0,0c1.8-0.8,3.9,0,4.8,1.8l0,0c0.8,1.8,0,3.9-1.8,4.8l0,0
			c-0.2,0.1-0.5,0.2-0.8,0.2l0,0C32.5,131.1,30.8,130.3,30.1,128.8z M42,122.6c-1.2-1.5-1-3.8,0.6-5l0,0c1.5-1.2,3.8-1,5,0.6l0,0
			c1.2,1.5,1,3.8-0.6,5l0,0c-0.4,0.3-0.9,0.6-1.5,0.7l0,0C44.2,124.1,42.8,123.6,42,122.6z M19.3,124.4L19.3,124.4
			c-1.3-1.5-1.1-3.7,0.3-5l0,0c1.5-1.3,3.7-1.2,5.1,0.3l0,0c1.3,1.5,1.2,3.7-0.3,5.1c0,0,0,0,0,0l0,0c-0.5,0.4-1,0.7-1.6,0.8l0,0
			C21.4,125.8,20.1,125.4,19.3,124.4L19.3,124.4z M51.4,113.4c-1.8-0.9-2.5-3.1-1.6-4.8c0,0,0,0,0,0l0,0c0.9-1.7,3-2.4,4.8-1.5l0,0
			c1.8,0.9,2.5,3.1,1.6,4.8c0,0,0,0,0,0l0,0c-0.5,1-1.4,1.6-2.4,1.9l0,0C53,113.9,52.1,113.7,51.4,113.4L51.4,113.4z M12.3,111.4
			L12.3,111.4c-0.6-1.9,0.5-3.9,2.3-4.5c0,0,0,0,0,0l0,0c1.9-0.6,3.9,0.5,4.5,2.3l0,0c0.6,1.9-0.5,3.9-2.4,4.5l0,0l-0.3,0.1l0,0
			C14.7,114.2,12.9,113.2,12.3,111.4z M57.1,101.4c-1.8-0.8-2.7-2.9-1.9-4.7c0,0,0,0,0,0l0,0c0.8-1.8,2.8-2.7,4.7-1.9c0,0,0,0,0,0
			l0,0c1.8,0.8,2.7,2.8,1.9,4.7c0,0,0,0,0,0l0,0c-0.4,1.1-1.4,1.9-2.5,2.1l0,0C58.6,101.7,57.8,101.7,57.1,101.4L57.1,101.4z
			 M19.7,93.3c-1.4-1.4-1.4-3.7,0-5.1l0,0c1.4-1.4,3.7-1.4,5.1,0l0,0c1.4,1.4,1.4,3.7,0,5.1l0,0c-0.5,0.5-1.1,0.8-1.8,1l0,0
			C21.8,94.6,20.6,94.2,19.7,93.3z M29,83.9c-1.4-1.4-1.4-3.7,0-5.1l0,0c1.4-1.4,3.7-1.4,5.1,0c0,0,0,0,0,0l0,0
			c1.4,1.4,1.4,3.6,0,5.1l0,0c-0.5,0.5-1.1,0.8-1.8,1l0,0C31.1,85.1,29.9,84.7,29,83.9z M14,87.5c-2,0-3.6-1.6-3.5-3.6c0,0,0,0,0,0
			l0,0c0-2,1.7-3.6,3.6-3.5c0,0,0,0,0,0l0,0c2,0,3.5,1.7,3.5,3.7l0,0c0,1.7-1.2,3.1-2.8,3.4l0,0C14.5,87.5,14.2,87.5,14,87.5z
			 M38.6,74.5c-1.7-1.1-2.1-3.3-1-5c0,0,0,0,0,0l0,0c1.1-1.7,3.3-2.1,5-1c0,0,0,0,0,0l0,0c1.7,1.1,2.1,3.3,1,5c0,0,0,0,0,0l0,0
			c-0.5,0.8-1.3,1.3-2.2,1.5l0,0C40.4,75.3,39.4,75.1,38.6,74.5L38.6,74.5z M14.2,74.2c-2-0.2-3.4-2-3.2-3.9c0,0,0-0.1,0-0.1l0,0
			c0.2-1.9,2-3.3,3.9-3.1l0,0c2,0.2,3.4,1.9,3.2,3.9l0,0c-0.2,1.5-1.3,2.8-2.8,3.1l0,0C15,74.2,14.6,74.2,14.2,74.2z M39.3,60.7
			c-0.9-1.8-0.2-3.9,1.6-4.8c0,0,0,0,0,0l0,0c1.8-0.9,3.9-0.2,4.8,1.6l0,0c0.9,1.8,0.2,3.9-1.6,4.8l0,0c-0.3,0.1-0.6,0.2-0.9,0.3
			l0,0C41.7,62.9,40,62.2,39.3,60.7z M18,61.6c-1.4-1.3-1.5-3.6-0.2-5.1c0,0,0,0,0,0l0,0c1.4-1.4,3.6-1.5,5.1-0.2l0,0
			c1.4,1.3,1.5,3.6,0.2,5c0,0,0,0,0,0l0,0c-0.5,0.5-1.1,0.9-1.9,1.1l0,0C20,62.7,18.8,62.4,18,61.6z M32,56.2
			c-2,0.1-3.7-1.4-3.8-3.3c0,0,0,0,0,0l0,0c-0.1-2,1.3-3.7,3.3-3.8l0,0c2-0.1,3.7,1.4,3.8,3.3l0,0c0.1,1.8-1.1,3.3-2.8,3.7l0,0
			C32.3,56.1,32.1,56.2,32,56.2z"/>
		<path class="st3" d="M64.1,89.4c-0.2,0-0.5,0.1-0.7,0.1c-0.2,0-0.5,0-0.7-0.1c-0.2,0-0.5-0.1-0.7-0.2c-0.2-0.1-0.4-0.2-0.6-0.3
			c-0.2-0.1-0.4-0.3-0.6-0.4c-0.2-0.2-0.3-0.3-0.5-0.5c-0.1-0.2-0.2-0.4-0.3-0.6c-0.1-0.2-0.2-0.4-0.2-0.7c0-0.2-0.1-0.5-0.1-0.7
			c0-0.2,0-0.5,0.1-0.7c0-0.2,0.1-0.5,0.2-0.7c0.1-0.2,0.2-0.4,0.3-0.6c0.7-1,1.8-1.6,3-1.6c0.2,0,0.5,0,0.7,0
			c0.2,0,0.5,0.1,0.7,0.2c0.2,0.1,0.4,0.2,0.6,0.3c0.2,0.1,0.4,0.3,0.6,0.4c0.2,0.2,0.3,0.3,0.4,0.5c0.1,0.2,0.2,0.4,0.3,0.6
			c0.1,0.2,0.2,0.4,0.2,0.7c0.1,0.2,0.1,0.5,0.1,0.7c0,0.2,0,0.5-0.1,0.7c0,0.2-0.1,0.5-0.2,0.7c-0.1,0.2-0.2,0.4-0.3,0.6
			C65.9,88.6,65.1,89.1,64.1,89.4z"/>
		<path class="st0" d="M86.1,21.2C74.5,17.3,62.1,23,58.5,33.9c-1.2,3.7-1.3,7.7-0.3,11.4l8.3,30.9c0.2,0.6,0.6,1.1,1.2,1.3l0,0
			c0.6,0.2,1.3,0.1,1.8-0.3l24.9-20.1c2.9-2.4,5.1-5.5,6.3-9.1C104.3,37.1,97.8,25.1,86.1,21.2z M91.9,54.4L69.3,72.7l-7.6-28
			c-0.9-3.2-0.8-6.5,0.3-9.6c3-9.1,13.4-13.8,23.1-10.6s15.1,13.3,12.1,22.4C96.2,49.8,94.3,52.5,91.9,54.4z"/>
		<path class="st0" d="M82.9,31.1c-5.8-2-12,0.9-13.9,6.4s1.4,11.4,7.3,13.4c5.9,2,12.1-1,13.8-6.4S88.7,33,82.9,31.1z M77.4,47.6
			c-3.8-1.1-6-5.2-4.9-9c0,0,0,0,0,0c1.5-3.8,5.9-5.7,9.7-4.1c3.5,1.4,5.4,5.2,4.4,8.8C85.2,47,81.1,48.9,77.4,47.6
			C77.4,47.6,77.4,47.6,77.4,47.6z"/>
		<path class="st3" d="M14,102.8c-0.9,0.2-1.9,0-2.7-0.5c-0.2-0.1-0.4-0.3-0.5-0.4c-0.2-0.2-0.3-0.3-0.5-0.5
			c-0.1-0.2-0.2-0.4-0.3-0.6c-0.1-0.2-0.2-0.4-0.2-0.7c0-0.2-0.1-0.5-0.1-0.7c0-0.2,0-0.5,0.1-0.7c0-0.2,0.1-0.4,0.2-0.7
			c0.1-0.2,0.2-0.4,0.3-0.6c0.1-0.2,0.3-0.4,0.4-0.6c0.2-0.2,0.3-0.3,0.5-0.4c0.2-0.1,0.4-0.2,0.6-0.3c0.4-0.2,0.9-0.3,1.4-0.3
			c0.2,0,0.5,0,0.7,0.1c0.2,0,0.5,0.1,0.7,0.2c0.2,0.1,0.4,0.2,0.6,0.3c0.2,0.1,0.4,0.3,0.6,0.4c0.2,0.2,0.3,0.3,0.4,0.5
			c0.1,0.2,0.3,0.4,0.3,0.6c0.2,0.4,0.3,0.9,0.3,1.4c0,0.2,0,0.5,0,0.7c0,0.2-0.1,0.5-0.2,0.7c-0.1,0.2-0.2,0.4-0.3,0.6
			C15.7,102,14.9,102.6,14,102.8z"/>
	</g>
</g>
</svg>
